<svg width="204" height="58" viewBox="0 0 204 58" fill="none" xmlns="http://www.w3.org/2000/svg">
<path d="M55.5899 26.254V41.3333H56.6259V26.254C56.6259 25.93 56.6739 25.6564 56.7698 25.433C56.8561 25.1984 56.9712 25.0197 57.1151 24.8968C57.259 24.774 57.4508 24.679 57.6906 24.612C57.9209 24.5338 58.1463 24.4891 58.3669 24.478C58.5875 24.4556 58.8609 24.4444 59.1871 24.4444C59.5132 24.4444 59.7866 24.4556 60.0072 24.478C60.2278 24.4891 60.458 24.5338 60.6978 24.612C60.9281 24.679 61.1151 24.774 61.259 24.8968C61.4029 25.0197 61.5228 25.1984 61.6187 25.433C61.705 25.6564 61.7482 25.93 61.7482 26.254V41.3333H62.7842V26.254C62.7842 24.2434 61.5851 23.2381 59.1871 23.2381C56.789 23.2381 55.5899 24.2434 55.5899 26.254ZM53.518 26.254V41.3333H54.554V26.254C54.554 24.8354 54.9856 23.7798 55.8489 23.0873C56.7026 22.3836 57.8153 22.0317 59.1871 22.0317C60.5588 22.0317 61.6763 22.3836 62.5396 23.0873C63.3933 23.7798 63.8201 24.8354 63.8201 26.254V41.3333H64.8561V26.254C64.8561 25.0811 64.5971 24.0758 64.0791 23.2381C63.5612 22.4004 62.8849 21.7916 62.0504 21.4118C61.2062 21.0209 60.2518 20.8254 59.1871 20.8254C58.1223 20.8254 57.1727 21.0209 56.3381 21.4118C55.494 21.7916 54.813 22.4004 54.295 23.2381C53.777 24.0758 53.518 25.0811 53.518 26.254ZM51.446 26.254V41.3333H52.482V26.254C52.482 25.204 52.6595 24.2546 53.0144 23.4056C53.3597 22.5567 53.8393 21.8586 54.4532 21.3113C55.0671 20.764 55.777 20.3451 56.5827 20.0547C57.3885 19.7643 58.2566 19.619 59.1871 19.619C60.1175 19.619 60.9856 19.7643 61.7914 20.0547C62.5971 20.3451 63.307 20.764 63.9209 21.3113C64.5348 21.8586 65.0192 22.5567 65.3741 23.4056C65.7194 24.2546 65.8921 25.204 65.8921 26.254V41.3333H66.9281V26.254C66.9281 25.0364 66.7266 23.9306 66.3237 22.9365C65.9113 21.9424 65.3549 21.1214 64.6547 20.4735C63.9544 19.8145 63.1343 19.3063 62.1942 18.9489C61.2542 18.5914 60.2518 18.4127 59.1871 18.4127C58.1223 18.4127 57.1199 18.5914 56.1799 18.9489C55.2398 19.3063 54.4197 19.8145 53.7194 20.4735C53.0192 21.1214 52.4676 21.9424 52.0647 22.9365C51.6523 23.9306 51.446 25.0364 51.446 26.254ZM49.3741 41.3333H50.4101V26.254C50.4101 25.0364 50.6451 23.8692 51.1151 22.7522C51.5755 21.6352 52.199 20.6746 52.9856 19.8704C53.7722 19.055 54.7074 18.4071 55.7914 17.9268C56.8753 17.4465 58.0072 17.2063 59.1871 17.2063C60.8082 17.2063 62.2806 17.5638 63.6043 18.2787C64.9185 18.9824 65.9736 20.0323 66.7698 21.4286C67.5659 22.8136 67.964 24.4221 67.964 26.254V41.3333H69V26.254C69 24.7125 68.741 23.2939 68.223 21.9982C67.705 20.7025 67.0048 19.619 66.1223 18.7478C65.2302 17.8765 64.1894 17.2008 63 16.7205C61.801 16.2402 60.53 16 59.1871 16C56.8082 16 54.7458 16.6981 53 18.0944C51.2542 16.6981 49.1918 16 46.813 16C45.47 16 44.2038 16.2402 43.0144 16.7205C41.8153 17.2008 40.7746 17.8765 39.8921 18.7478C39 19.619 38.295 20.7025 37.777 21.9982C37.259 23.2939 37 24.7125 37 26.254V41.3333H38.036V26.254C38.036 24.4333 38.4341 22.8304 39.2302 21.4453C40.0264 20.0491 41.0863 18.9935 42.4101 18.2787C43.7242 17.5638 45.1918 17.2063 46.813 17.2063C48.8465 17.2063 50.6211 17.7648 52.1367 18.8818C51.9161 19.1052 51.6715 19.3956 51.4029 19.7531C50.0887 18.8595 48.5588 18.4127 46.813 18.4127C45.7482 18.4127 44.7458 18.5914 43.8058 18.9489C42.8657 19.3063 42.0456 19.8145 41.3453 20.4735C40.6451 21.1214 40.0935 21.9424 39.6906 22.9365C39.2782 23.9306 39.0719 25.0364 39.0719 26.254V41.3333H40.1079V26.254C40.1079 25.204 40.2854 24.2546 40.6403 23.4056C40.9856 22.5567 41.4652 21.8586 42.0791 21.3113C42.693 20.764 43.4029 20.3451 44.2086 20.0547C45.0144 19.7643 45.8825 19.619 46.813 19.619C48.3381 19.619 49.6571 19.9821 50.7698 20.7081C50.5971 21.0209 50.4245 21.3671 50.2518 21.7469C49.3118 21.1326 48.1655 20.8254 46.813 20.8254C45.7482 20.8254 44.7986 21.0209 43.964 21.4118C43.1199 21.7916 42.4389 22.4004 41.9209 23.2381C41.4029 24.0758 41.1439 25.0811 41.1439 26.254V41.3333H42.1799V26.254C42.1799 24.8354 42.6115 23.7798 43.4748 23.0873C44.3285 22.3836 45.4412 22.0317 46.813 22.0317C48.06 22.0317 49.0719 22.2998 49.8489 22.836C49.7242 23.2604 49.6283 23.6626 49.5612 24.0423C48.9568 23.5062 48.0408 23.2381 46.813 23.2381C44.4149 23.2381 43.2158 24.2434 43.2158 26.254V41.3333H44.2518V26.254C44.2518 25.93 44.2998 25.6564 44.3957 25.433C44.482 25.1984 44.5971 25.0197 44.741 24.8968C44.8849 24.774 45.0767 24.679 45.3165 24.612C45.5468 24.5338 45.7722 24.4891 45.9928 24.478C46.2134 24.4556 46.4868 24.4444 46.813 24.4444C47.1391 24.4444 47.4125 24.4556 47.6331 24.478C47.8537 24.4891 48.0839 24.5338 48.3237 24.612C48.554 24.679 48.741 24.774 48.8849 24.8968C49.0288 25.0197 49.1487 25.1984 49.2446 25.433C49.3309 25.6564 49.3741 25.93 49.3741 26.254V41.3333Z" fill="#056CF2"/>
<path d="M74.12 34.6667V26.1867H75.64V27.4187H75.704C75.7893 27.2587 75.9227 27.0721 76.104 26.8587C76.2853 26.6347 76.5307 26.4427 76.84 26.2827C77.16 26.1121 77.56 26.0267 78.04 26.0267C78.6693 26.0267 79.1973 26.1814 79.624 26.4907C80.0613 26.7894 80.3867 27.1947 80.6 27.7067H80.616C80.8507 27.2374 81.1813 26.8427 81.608 26.5227C82.0453 26.1921 82.6107 26.0267 83.304 26.0267C84.2213 26.0267 84.9253 26.3414 85.416 26.9707C85.9173 27.5894 86.168 28.3894 86.168 29.3707V34.6667H84.648V29.4507C84.648 28.8214 84.4987 28.3147 84.2 27.9307C83.9013 27.5361 83.4693 27.3387 82.904 27.3387C82.4133 27.3387 82.0187 27.4721 81.72 27.7387C81.432 28.0054 81.224 28.3361 81.096 28.7307C80.968 29.1254 80.904 29.5201 80.904 29.9147V34.6667H79.384V29.4507C79.384 28.8214 79.2347 28.3147 78.936 27.9307C78.648 27.5361 78.216 27.3387 77.64 27.3387C77.1493 27.3387 76.7547 27.4721 76.456 27.7387C76.168 28.0054 75.96 28.3414 75.832 28.7467C75.704 29.1414 75.64 29.5307 75.64 29.9147V34.6667H74.12ZM92.0813 26.0267C92.6146 26.0267 93.0626 26.1121 93.4253 26.2827C93.7879 26.4534 94.0813 26.6561 94.3053 26.8907C94.5293 27.1147 94.6999 27.3281 94.8173 27.5307H94.9133V26.1867H96.4333V34.6667H94.9133V33.3227H94.8173C94.6999 33.5254 94.5293 33.7441 94.3053 33.9787C94.0813 34.2134 93.7879 34.4161 93.4253 34.5867C93.0626 34.7467 92.6146 34.8267 92.0813 34.8267C91.4413 34.8267 90.8813 34.7041 90.4013 34.4587C89.9213 34.2027 89.5213 33.8667 89.2013 33.4507C88.8813 33.0241 88.6413 32.5494 88.4813 32.0267C88.3213 31.5041 88.2413 30.9707 88.2413 30.4267C88.2413 29.8827 88.3213 29.3494 88.4813 28.8267C88.6413 28.3041 88.8813 27.8347 89.2013 27.4187C89.5213 26.9921 89.9213 26.6561 90.4013 26.4107C90.8813 26.1547 91.4413 26.0267 92.0813 26.0267ZM92.3373 27.3227C91.7719 27.3227 91.2973 27.4774 90.9133 27.7867C90.5293 28.0854 90.2413 28.4694 90.0493 28.9387C89.8679 29.4081 89.7773 29.9041 89.7773 30.4267C89.7773 30.9387 89.8679 31.4347 90.0493 31.9147C90.2413 32.3841 90.5293 32.7734 90.9133 33.0827C91.2973 33.3814 91.7719 33.5307 92.3373 33.5307C92.9026 33.5307 93.3719 33.3814 93.7453 33.0827C94.1293 32.7734 94.4119 32.3841 94.5933 31.9147C94.7853 31.4347 94.8813 30.9387 94.8813 30.4267C94.8813 29.9041 94.7853 29.4081 94.5933 28.9387C94.4119 28.4694 94.1293 28.0854 93.7453 27.7867C93.3719 27.4774 92.9026 27.3227 92.3373 27.3227ZM98.6669 34.6667V26.1867H100.187V27.4187H100.283C100.358 27.2907 100.48 27.1147 100.651 26.8907C100.832 26.6667 101.088 26.4694 101.419 26.2987C101.75 26.1174 102.166 26.0267 102.667 26.0267C103.286 26.0267 103.814 26.1707 104.251 26.4587C104.688 26.7361 105.019 27.1147 105.243 27.5947C105.478 28.0747 105.595 28.6134 105.595 29.2107V34.6667H104.075V29.3067C104.075 28.7414 103.915 28.2721 103.595 27.8987C103.286 27.5254 102.832 27.3387 102.235 27.3387C101.755 27.3387 101.366 27.4614 101.067 27.7067C100.768 27.9414 100.544 28.2561 100.395 28.6507C100.256 29.0347 100.187 29.4454 100.187 29.8827V34.6667H98.6669ZM107.999 37.8027V26.1867H109.519V27.5307H109.615C109.743 27.3281 109.913 27.1094 110.127 26.8747C110.351 26.6401 110.644 26.4427 111.007 26.2827C111.369 26.1121 111.817 26.0267 112.351 26.0267C112.991 26.0267 113.551 26.1547 114.031 26.4107C114.511 26.6561 114.911 26.9921 115.231 27.4187C115.551 27.8347 115.791 28.3041 115.951 28.8267C116.111 29.3494 116.191 29.8827 116.191 30.4267C116.191 30.9707 116.111 31.5041 115.951 32.0267C115.791 32.5494 115.551 33.0241 115.231 33.4507C114.911 33.8667 114.511 34.2027 114.031 34.4587C113.551 34.7041 112.991 34.8267 112.351 34.8267C111.817 34.8267 111.369 34.7414 111.007 34.5707C110.644 34.4001 110.351 34.1974 110.127 33.9627C109.913 33.7281 109.743 33.5147 109.615 33.3227H109.519V37.8027H107.999ZM109.551 30.4267C109.551 30.9387 109.641 31.4347 109.823 31.9147C110.015 32.3841 110.297 32.7734 110.671 33.0827C111.055 33.3814 111.529 33.5307 112.095 33.5307C112.671 33.5307 113.145 33.3814 113.519 33.0827C113.903 32.7734 114.185 32.3841 114.367 31.9147C114.559 31.4347 114.655 30.9387 114.655 30.4267C114.655 29.9041 114.559 29.4081 114.367 28.9387C114.185 28.4694 113.903 28.0854 113.519 27.7867C113.145 27.4774 112.671 27.3227 112.095 27.3227C111.529 27.3227 111.055 27.4774 110.671 27.7867C110.297 28.0854 110.015 28.4694 109.823 28.9387C109.641 29.4081 109.551 29.9041 109.551 30.4267ZM118.276 34.6667V26.1867H119.796V27.2427H119.86C120.042 26.9227 120.308 26.6401 120.66 26.3947C121.012 26.1494 121.508 26.0267 122.148 26.0267C122.33 26.0267 122.495 26.0374 122.644 26.0587C122.794 26.0694 122.868 26.0747 122.868 26.0747V27.5307C122.868 27.5307 122.783 27.5254 122.612 27.5147C122.452 27.4934 122.282 27.4827 122.1 27.4827C121.364 27.4827 120.794 27.6961 120.388 28.1227C119.994 28.5387 119.796 29.2214 119.796 30.1707V34.6667H118.276ZM127.917 34.8267C127.011 34.8267 126.248 34.6187 125.629 34.2027C125.011 33.7761 124.541 33.2267 124.221 32.5547C123.901 31.8827 123.741 31.1734 123.741 30.4267C123.741 29.6694 123.901 28.9601 124.221 28.2987C124.541 27.6267 125.011 27.0827 125.629 26.6667C126.248 26.2401 127.011 26.0267 127.917 26.0267C128.824 26.0267 129.587 26.2401 130.205 26.6667C130.824 27.0827 131.293 27.6267 131.613 28.2987C131.933 28.9601 132.093 29.6694 132.093 30.4267C132.093 31.1734 131.933 31.8827 131.613 32.5547C131.293 33.2267 130.824 33.7761 130.205 34.2027C129.587 34.6187 128.824 34.8267 127.917 34.8267ZM127.917 33.4987C128.493 33.4987 128.973 33.3547 129.357 33.0667C129.752 32.7681 130.045 32.3841 130.237 31.9147C130.44 31.4454 130.541 30.9494 130.541 30.4267C130.541 29.8934 130.44 29.3974 130.237 28.9387C130.045 28.4694 129.752 28.0907 129.357 27.8027C128.973 27.5041 128.493 27.3547 127.917 27.3547C127.352 27.3547 126.872 27.5041 126.477 27.8027C126.083 28.0907 125.784 28.4694 125.581 28.9387C125.389 29.3974 125.293 29.8934 125.293 30.4267C125.293 30.9494 125.389 31.4454 125.581 31.9147C125.784 32.3841 126.083 32.7681 126.477 33.0667C126.872 33.3547 127.352 33.4987 127.917 33.4987ZM137.611 34.8267C136.736 34.8267 136.075 34.6027 135.627 34.1547C135.189 33.7067 134.971 33.0774 134.971 32.2667V27.4347H133.451V26.1867H134.971V24.0587H136.491V26.1867H138.555V27.4347H136.491V32.2667C136.491 32.6934 136.608 33.0081 136.843 33.2107C137.077 33.4027 137.419 33.4987 137.867 33.4987C138.101 33.4987 138.325 33.4827 138.539 33.4507C138.752 33.4187 138.859 33.4027 138.859 33.4027V34.6987C138.859 34.6987 138.736 34.7201 138.491 34.7627C138.245 34.8054 137.952 34.8267 137.611 34.8267ZM144.222 26.0267C144.755 26.0267 145.203 26.1121 145.566 26.2827C145.929 26.4534 146.222 26.6561 146.446 26.8907C146.67 27.1147 146.841 27.3281 146.958 27.5307H147.054V26.1867H148.574V34.6667H147.054V33.3227H146.958C146.841 33.5254 146.67 33.7441 146.446 33.9787C146.222 34.2134 145.929 34.4161 145.566 34.5867C145.203 34.7467 144.755 34.8267 144.222 34.8267C143.582 34.8267 143.022 34.7041 142.542 34.4587C142.062 34.2027 141.662 33.8667 141.342 33.4507C141.022 33.0241 140.782 32.5494 140.622 32.0267C140.462 31.5041 140.382 30.9707 140.382 30.4267C140.382 29.8827 140.462 29.3494 140.622 28.8267C140.782 28.3041 141.022 27.8347 141.342 27.4187C141.662 26.9921 142.062 26.6561 142.542 26.4107C143.022 26.1547 143.582 26.0267 144.222 26.0267ZM144.478 27.3227C143.913 27.3227 143.438 27.4774 143.054 27.7867C142.67 28.0854 142.382 28.4694 142.19 28.9387C142.009 29.4081 141.918 29.9041 141.918 30.4267C141.918 30.9387 142.009 31.4347 142.19 31.9147C142.382 32.3841 142.67 32.7734 143.054 33.0827C143.438 33.3814 143.913 33.5307 144.478 33.5307C145.043 33.5307 145.513 33.3814 145.886 33.0827C146.27 32.7734 146.553 32.3841 146.734 31.9147C146.926 31.4347 147.022 30.9387 147.022 30.4267C147.022 29.9041 146.926 29.4081 146.734 28.9387C146.553 28.4694 146.27 28.0854 145.886 27.7867C145.513 27.4774 145.043 27.3227 144.478 27.3227ZM153.911 34.8267C153.261 34.8267 152.722 34.7361 152.296 34.5547C151.88 34.3734 151.549 34.1494 151.304 33.8827C151.058 33.6054 150.877 33.3334 150.76 33.0667C150.642 32.7894 150.568 32.5601 150.536 32.3787C150.504 32.1974 150.488 32.1067 150.488 32.1067H152.024C152.024 32.1067 152.04 32.1814 152.072 32.3307C152.114 32.4694 152.194 32.6347 152.312 32.8267C152.44 33.0081 152.632 33.1734 152.888 33.3227C153.154 33.4614 153.506 33.5307 153.944 33.5307C154.445 33.5307 154.834 33.4134 155.112 33.1787C155.389 32.9334 155.528 32.6347 155.528 32.2827C155.528 31.9734 155.416 31.7281 155.192 31.5467C154.978 31.3654 154.669 31.2267 154.264 31.1307L153.112 30.8587C152.685 30.7521 152.285 30.6081 151.912 30.4267C151.538 30.2454 151.234 30.0001 151 29.6907C150.776 29.3707 150.664 28.9761 150.664 28.5067C150.664 27.7814 150.936 27.1894 151.48 26.7307C152.024 26.2614 152.733 26.0267 153.608 26.0267C154.194 26.0267 154.68 26.1121 155.064 26.2827C155.448 26.4427 155.752 26.6454 155.976 26.8907C156.21 27.1361 156.381 27.3814 156.488 27.6267C156.605 27.8721 156.68 28.0801 156.712 28.2507C156.744 28.4107 156.76 28.4907 156.76 28.4907H155.288C155.288 28.4907 155.272 28.4321 155.24 28.3147C155.208 28.1867 155.133 28.0481 155.016 27.8987C154.909 27.7387 154.744 27.6001 154.52 27.4827C154.296 27.3547 153.997 27.2907 153.624 27.2907C153.112 27.2907 152.738 27.4081 152.504 27.6427C152.269 27.8774 152.152 28.1334 152.152 28.4107C152.152 28.6774 152.258 28.8961 152.472 29.0667C152.696 29.2267 152.984 29.3494 153.336 29.4347L154.504 29.7067C155.229 29.8774 155.826 30.1601 156.296 30.5547C156.776 30.9387 157.016 31.4934 157.016 32.2187C157.016 32.6881 156.893 33.1254 156.648 33.5307C156.402 33.9254 156.05 34.2401 155.592 34.4747C155.133 34.7094 154.573 34.8267 153.911 34.8267ZM159.093 34.6667V22.5067H160.613V29.5787L163.989 26.1867H165.973L162.069 30.0427L166.053 34.6667H164.117L160.613 30.5867V34.6667H159.093Z" fill="#056CF2"/>
</svg>
